<?xml version="1.0" encoding="UTF-8" standalone="no"?>
<!-- Created with Inkscape (http://www.inkscape.org/) -->

<svg
   xmlns:dc="http://purl.org/dc/elements/1.1/"
   xmlns:cc="http://creativecommons.org/ns#"
   xmlns:rdf="http://www.w3.org/1999/02/22-rdf-syntax-ns#"
   xmlns:svg="http://www.w3.org/2000/svg"
   xmlns="http://www.w3.org/2000/svg"
   version="1.1"
   width="128"
   height="128"
   id="svg3166">
  <metadata
     id="metadata3172">
    <rdf:RDF>
      <cc:Work
         rdf:about="">
        <dc:format>image/svg+xml</dc:format>
        <dc:type
           rdf:resource="http://purl.org/dc/dcmitype/StillImage" />
        <dc:title></dc:title>
      </cc:Work>
    </rdf:RDF>
  </metadata>
  <defs
     id="defs3170" />
  <g
     transform="translate(0,-896)"
     id="layer2"
     style="display:none">
    <path
       d="m 534.35583,303.75461 a 90.184052,90.184052 0 1 1 -180.3681,0 90.184052,90.184052 0 1 1 180.3681,0 z"
       transform="translate(28.55727,37.755617)"
       id="path3923"
       style="fill:#00ff00" />
  </g>
  <g
     transform="translate(0,-896)"
     id="layer3">
    <g
       id="g3176" />
    <g
       transform="matrix(1.0505869,0,0,1.054325,-6.4739939,-53.432027)"
       id="g3165">
      <g
         transform="matrix(0.11735629,0,0,0.11735629,6.4440769,901.27751)"
         id="g3294">
        <path
           d="M 47.399413,360.53104 C 137.89098,281.70195 389.73876,373.30792 324.1836,412.29021 227.84944,475.47543 166.64954,622.82833 435.7265,806.89966 -35.833565,827.25054 -36.655249,446.95382 47.399413,360.53104 z"
           transform="translate(2.2253546,1.4084507)"
           id="path3909"
           style="fill:#e0b72b" />
        <path
           d="M 554.15504,1019.7029 C 641.11262,910.08402 654.88796,765.01794 594.11081,706.05076 510.07025,644.09232 452.1227,680.43389 387.88001,638.07637 243.78062,531.6591 411.95298,364.16606 549.47722,471.50977 c 217.61677,207.01128 175.54249,418.54646 4.67782,548.19313 z m 213.04193,-55.71727 c 70.74618,-343.3587 -64.0616,-525.20925 -213.04193,-564.25261 24.95878,-10.81808 51.33609,-54.03628 57.44721,-90.42746 248.51445,-87.54744 480.83485,214.47339 389.74685,538.47647 14.4635,-70.07378 -27.88281,-320.05322 -178.9237,-348.84257 43.87985,76.99669 57.05414,216.69467 -55.22843,465.04617 z M 1013.6171,416.65928 C 843.26372,246.77024 713.56233,233.32661 616.08158,264.10466 613.67929,221.48488 582.05676,166.60955 517.846,151.39665 751.7175,104.56417 896.24074,252.37419 1013.6171,416.65928 z M 154.11805,273.26701 C 153.74606,142.81957 470.54997,21.685315 646.954,5.564234 394.88446,85.889892 271.44326,174.47055 285.88071,299.76131 251.21312,275.96296 206.20681,265.87596 154.11805,273.26701 z"
           transform="translate(2.2253546,1.4084507)"
           id="path3907"
           style="fill:#ee5552" />
        <path
           d="m 359.09104,302.5906 c -15.29883,-0.5166 -28.29178,-1.41543 -28.87323,-1.99739 -1.71961,-1.72113 -1.07021,-29.04373 0.88989,-37.44123 4.65655,-19.94968 12.05296,-38.00967 19.88656,-48.55746 5.41615,-7.29275 10.94688,-12.897 11.72405,-11.87991 0.24301,0.31802 5.89249,10.18735 12.55441,21.93185 10.42625,18.38075 19.16798,32.5728 44.32211,71.95623 l 4.72277,7.39436 -18.70525,-0.23359 c -10.28789,-0.12847 -31.22247,-0.65626 -46.52131,-1.17286 z"
           id="path3112"
           style="fill:#000000" />
        <path
           d="m 418.51379,260.08257 c -2.57015,-4.12168 -13.13882,-21.43763 -23.48595,-38.47988 l -18.81295,-30.98592 4.52961,-3.82393 c 11.80276,-9.96397 36.77044,-18.66631 58.30396,-20.3215 11.71527,-0.90051 39.55236,1.67765 40.85399,3.78373 0.39039,0.63166 -3.82503,8.64047 -9.36759,17.79734 -5.54256,9.15688 -17.97094,30.27563 -27.61862,46.93056 -9.64767,16.65493 -18.03358,30.80186 -18.63534,31.43762 -0.60177,0.63577 -3.19697,-2.21634 -5.76711,-6.33802 l 0,0 z"
           id="path3114"
           style="fill:#000000" />
        <path
           d="m 453.80851,251.29349 c 0,-1.31107 14.84072,-25.12625 31.41821,-50.41739 l 16.35516,-24.95194 5.20294,2.17393 c 19.34388,8.08239 43.70493,32.47048 54.7371,54.79786 2.72946,5.52399 4.96265,10.99878 4.96265,12.16621 0,1.82183 -7.33414,2.36327 -51.76057,3.82122 -28.46831,0.93425 -53.82042,2.02039 -56.33803,2.41364 -2.5176,0.39325 -4.57746,0.39166 -4.57746,-0.004 z"
           id="path3116"
           style="fill:#000000" />
        <path
           d="m 531.35675,349.40725 c -32.35584,-51.98363 -50.91928,-82.35851 -50.53566,-82.6902 0.24871,-0.21505 11.54376,0.12432 25.1001,0.75415 13.55633,0.62983 33.99647,1.18327 45.42253,1.22986 l 20.77465,0.0847 0,13.28821 c 0,20.57564 -6.04116,43.84385 -15.91762,61.30851 -4.87479,8.62013 -13.15361,18.36748 -15.5843,18.34869 -0.87817,-0.007 -5.04504,-5.55256 -9.2597,-12.32394 l 0,0 z"
           id="path3118"
           style="fill:#000000" />
        <path
           d="m 430.37083,398.79787 c -2.76891,-0.54201 -1.72775,-2.85561 12.74863,-28.32932 8.67008,-15.25651 20.775,-36.70899 26.89981,-47.6722 l 11.13603,-19.93309 11.5634,20.25314 c 6.35986,11.13923 16.13723,27.62461 21.72748,36.63419 5.59026,9.00958 9.57297,16.78809 8.85047,17.28559 -0.7225,0.49749 -4.25454,2.96787 -7.84899,5.48973 -8.48618,5.95389 -24.34048,12.22259 -37.98822,15.02033 -10.01741,2.05353 -39.04984,2.82523 -47.08861,1.25163 l 0,0 z"
           id="path3120"
           style="fill:#000000" />
        <path
           d="m 393.81158,387.95021 c -9.95861,-4.63707 -17.84588,-10.52688 -29.9748,-22.38366 -11.56041,-11.30103 -19.37685,-22.04896 -25.59673,-35.19659 -7.15606,-15.12651 -10.31345,-14.0266 37.04733,-12.90582 22.65845,0.53621 48.92597,1.36984 58.37226,1.85251 l 17.17508,0.87759 -10.62801,16.9014 c -25.96391,41.28967 -34.78042,54.22478 -36.95035,54.2116 -1.24562,-0.008 -5.49576,-1.51823 -9.44478,-3.35703 z"
           id="path3122"
           style="fill:#000000" />
      </g>
    </g>
  </g>
</svg>
